<?xml version="1.0" encoding="UTF-8"?>
<svg xmlns="http://www.w3.org/2000/svg" id="Layer_1" data-name="Layer 1" viewBox="0 0 122.7 26.5">
  <defs>
    <style>.p2s__logo_cm{fill:#fb9a2d;}</style>
  </defs>
  <title>cm</title>
  <g id="Layer_2" data-name="Layer 2">
    <g id="Layer_1-2" data-name="Layer 1-2">
      <path class="p2s__logo_cm" d="M85.44,9.17H70.74a2.45,2.45,0,0,1-2.48-2.29,2.41,2.41,0,0,1,2.29-2.53H89.87A.16.16,0,0,0,90,4.19v-4A.16.16,0,0,0,89.88,0H70.79a6.86,6.86,0,0,0-6.88,6.84s0,0,0,0a6.77,6.77,0,0,0,6.76,6.64h14.7a2.45,2.45,0,0,1,2.48,2.29,2.42,2.42,0,0,1-2.3,2.54H66a.16.16,0,0,0-.16.16h0v4a.16.16,0,0,0,.16.16H85.32a6.85,6.85,0,0,0,6.88-6.82s0,0,0-.05a6.77,6.77,0,0,0-6.76-6.65"></path>
      <path class="p2s__logo_cm" d="M36.3,15.93a2.41,2.41,0,0,1,2.41-2.41H53.37a6.87,6.87,0,0,0,6.88-6.86s0,0,0,0A6.77,6.77,0,0,0,53.49,0H34.29a.16.16,0,0,0-.16.16v4a.16.16,0,0,0,.16.16H53.42A2.45,2.45,0,0,1,55.9,6.64a2.41,2.41,0,0,1-2.29,2.53H38.83A6.87,6.87,0,0,0,32,16a6.78,6.78,0,0,0,6.76,6.64h19.4a.16.16,0,0,0,.16-.16v-4a.16.16,0,0,0-.16-.16H38.71a2.42,2.42,0,0,1-2.41-2.42"></path>
      <path class="p2s__logo_cm" d="M18.83,14.73H7.69a.48.48,0,0,0-.28.1L4.47,17a.08.08,0,0,1-.11,0h0V4.43a.07.07,0,0,1,.06-.08H19.12a5.27,5.27,0,0,1,5.31,5.23s0,0,0,.06a5.3,5.3,0,0,1-5.6,5.09M18.83,0H.16A.16.16,0,0,0,0,.16V26.42a.08.08,0,0,0,.08.08l0,0,8.71-7.29a.51.51,0,0,1,.31-.11h9.93a9.65,9.65,0,0,0,9.7-9.6v0A9.62,9.62,0,0,0,19,0h-.17"></path>
      <path class="p2s__logo_cm" d="M98.4,17.31a2.88,2.88,0,0,0,2.82,2.94h.1a3,3,0,0,0,2.43-1.19l1.13,1a4.47,4.47,0,0,1-3.59,1.64,4.41,4.41,0,1,1-.42-8.81h.42a4.44,4.44,0,0,1,3.13,1.23l-1.06,1.12a3,3,0,0,0-2.08-.88A2.86,2.86,0,0,0,98.4,17.2S98.4,17.27,98.4,17.31Z"></path>
      <path class="p2s__logo_cm" d="M110.39,18.15,113.51,13h1.17v8.57H113V16.82l-2,3.36h-1.15l-2.06-3.36v4.77h-1.65V13h1.16Z"></path>
    </g>
  </g>
</svg>
