<svg id="Layer_1" xmlns="http://www.w3.org/2000/svg" viewBox="0 0 226.1 50.5">
<style>.p2s__logo_1{fill:#3b6d89}</style>
<path class="p2s__logo_1" d="M162.9 17.5h-28c-2.5 0-4.6-1.9-4.7-4.4-.1-2.6 2-4.8 4.6-4.8h36.6c.2 0 .3-.1.3-.3V.3c0-.2-.1-.3-.3-.3H135c-7.2 0-13.2 5.9-13.1 13.1.1 7 5.9 12.7 12.9 12.7h28c2.5 0 4.6 1.9 4.7 4.4.1 2.6-2 4.8-4.6 4.8h-37.1c-.2 0-.3.1-.3.3V43c0 .2.1.3.3.3h36.9c7.2 0 13.2-5.9 13.1-13.1-.1-7.1-5.8-12.7-12.9-12.7M69.2 30.4c0-2.5 2.1-4.6 4.6-4.6h28c7.2 0 13.2-5.9 13.1-13.1C114.8 5.7 109 0 102 0H65.4c-.2 0-.3.1-.3.3V8c0 .2.1.3.3.3h36.5c2.5 0 4.6 1.9 4.7 4.4.1 2.6-2 4.8-4.6 4.8H74c-7.2 0-13.2 5.9-13.1 13.1.1 7 5.9 12.7 12.9 12.7h37.1c.2 0 .3-.1.3-.3v-7.7c0-.2-.1-.3-.3-.3H73.8c-2.5 0-4.6-2.1-4.6-4.6m-33.3-2.3H14.7c-.2 0-.4.1-.5.2l-5.7 4.1c-.1.1-.2 0-.2-.1V8.4c0-.1.1-.2.2-.2h28c5.6 0 10.2 4.5 10.1 10.1-.1 5.9-4.9 9.8-10.7 9.8m0-28.1H.3C.1 0 0 .1 0 .3v50.1c0 .1.1.2.2.1l16.6-13.9c.2-.1.4-.2.6-.2h18.9c10.2 0 18.6-8.2 18.5-18.4 0-10.4-8.5-18-18.9-18m151.2 25.8h3.1v16.1h-3.1zm6.8 0h2.2l9 10.5V25.8h3.1v16.1H206l-8.9-10.5v10.5h-3.2zm20 8.1c0 3.1 2.4 5.5 5.5 5.5 2.1 0 3.6-1 4.6-2.2l2.1 1.9c-1.4 1.8-3.8 3.1-6.8 3.1-5 0-8.5-3.7-8.5-8.3s3.5-8.3 8.5-8.3c2.4 0 4.4.9 5.9 2.3l-2 2.1c-1-1-2.3-1.7-3.9-1.7-3.1 0-5.4 2.5-5.4 5.6"/></svg>